<?xml version="1.0" encoding="UTF-8"?>
<!DOCTYPE svg PUBLIC "-//W3C//DTD SVG 1.1//EN" "http://www.w3.org/Graphics/SVG/1.1/DTD/svg11.dtd">
<!-- Creator: CorelDRAW X8 -->
<svg xmlns="http://www.w3.org/2000/svg" xml:space="preserve" width="210mm" height="297mm" version="1.1" style="shape-rendering:geometricPrecision; text-rendering:geometricPrecision; image-rendering:optimizeQuality; fill-rule:evenodd; clip-rule:evenodd"
viewBox="0 0 21000 29700"
 xmlns:xlink="http://www.w3.org/1999/xlink">
 <defs>
  <style type="text/css">
   <![CDATA[
    .fil0 {fill:#275086}
    .fil2 {fill:#2C9563}
    .fil8 {fill:#92876A}
    .fil4 {fill:#D0A65A}
    .fil5 {fill:#D1A65A}
    .fil3 {fill:#DA3540}
    .fil6 {fill:#DEB264}
    .fil7 {fill:#E0B364}
    .fil9 {fill:#ED9DA2}
    .fil1 {fill:white}
   ]]>
  </style>
 </defs>
 <g id="Camada_x0020_1">
  <metadata id="CorelCorpID_0Corel-Layer"/>
  <g id="_2165045018688">
   <path class="fil0" d="M6041 25276l4 -18831 6602 -6 10 18922 -2375 1468c-129,81 -261,157 -393,242 -134,86 -286,196 -432,255l-3416 -2050zm7079 -18827l4576 -10 13 15836c-186,97 -363,224 -541,328l-1679 1025 -2357 -1410 -12 -15769zm-12128 -9l4574 -1 16 15790c-23,83 -1421,917 -1660,1062 -200,121 -382,265 -578,341l-2341 -1418 -11 -15774zm11438 -3711l480 3 -10 2622 -478 0 8 -2625zm-2621 22l467 1 0 2157 1165 5c59,46 57,3 56,204 -1,82 -2,150 -11,249l-1701 -12c-10,-76 -50,-2604 24,-2604zm-7071 -18l484 -4 -15 2627 -474 -11 5 -2612zm11008 2612c120,-419 308,-876 455,-1302 139,-402 314,-959 478,-1314l512 11 950 2613 -510 4 -202 -600c-1310,0 -879,-115 -1186,599l-497 -11zm-6319 -2613l508 -3c115,231 936,2455 953,2626l-490 -5c-166,-237 -122,-556 -282,-593l-912 5 -202 590 -511 -3 936 -2617zm-3294 -3l1899 1 -3 444 -704 0 -11 2180 -478 1 0 -2181 -714 0 11 -445zm-3740 19826l9059 5454c358,-175 6226,-3829 6635,-4089 366,-232 752,-458 1115,-684l1109 -678 0 -21060 -17907 0 -11 21057z"/>
   <path class="fil1" d="M8872 22941c53,-228 383,-1321 488,-1447l485 1447 1474 56c-6,5 -14,11 -20,16l-1165 847 472 1467c-241,-104 -1033,-772 -1255,-885 -204,111 -936,684 -1260,886 95,-329 438,-1206 454,-1476 -195,-173 -406,-290 -613,-451 -152,-118 -521,-344 -603,-461l1543 1zm3294 -3930c-404,1979 -3734,3231 -4963,743 -458,-928 -58,-1920 322,-2092 -24,1237 598,2208 1763,2584 952,306 1770,11 2409,-645 167,-171 304,-392 469,-590zm-3523 -1480l203 15 -3 1286 -197 6 -3 -137 0 -1170zm2284 1005c-173,575 -866,385 -835,-401 32,-820 808,-739 836,-293 -349,0 -204,-136 -486,-87 -168,84 -242,795 48,868 226,57 55,-100 437,-87zm-989 122c-447,458 -991,117 -929,-583 62,-698 811,-762 912,-174l-182 28c-38,-56 -83,-117 -130,-186l-231 10c-359,432 -126,1129 359,780l-12 -170 -221 -20 1 -202 433 9 0 508zm-2144 -1124l690 0 -2 220 -478 0 -2 307 416 20 0 196 -416 7 -6 548 -196 6 -4 -137 -2 -1167zm-565 2678c-417,-387 -806,-1141 -822,-1970 -32,-1569 1131,-2933 2839,-2683 718,105 1397,621 1481,1305 -555,-227 -860,-491 -1694,-417 -801,71 -1602,652 -1924,1247 -299,552 -322,1145 -165,1757 82,317 194,504 285,761zm2652 -133l-76 -37c-20,-60 -30,-46 32,-42 426,-117 913,-685 1114,-1074 263,-509 342,-1192 195,-1808 -146,-615 -463,-1007 -871,-1281 -649,-436 -1040,-388 -1648,-509 165,-11 369,-73 583,-83 211,-10 429,5 631,37 371,59 740,208 1011,366 501,293 1001,826 1244,1472 399,1064 -174,2379 -1071,2831 -441,222 -650,166 -1144,128zm-424 7247c146,-59 298,-169 432,-255 132,-85 264,-161 393,-242l2375 -1468 -10 -18922 -6602 6 -4 18831 3416 2050z"/>
   <path class="fil2" d="M2754 19528c159,-112 391,-1217 529,-1435 5,7 13,17 17,22 103,178 346,1146 477,1412l1539 0c-201,158 -405,296 -611,455 -134,104 -502,384 -639,438l468 1506 -1251 -897c-308,174 -1022,785 -1252,872l463 -1436 -1235 -937 1495 0zm-1751 2686l2341 1418c196,-76 378,-220 578,-341 239,-145 1637,-979 1660,-1062l-16 -15790 -4574 1 11 15774z"/>
   <path class="fil3" d="M15352 18211c11,-30 16,-50 30,-77 29,-57 21,-32 52,-67l479 1461 1531 6 -625 461c-170,132 -498,328 -615,471l458 1443 -933 -661c-98,-78 -209,-164 -310,-219 -128,49 -223,145 -338,227 -244,175 -710,537 -929,656l469 -1493c-138,-56 -1089,-758 -1232,-891l1549 0 414 -1317zm-2220 4007l2357 1410 1679 -1025c178,-104 355,-231 541,-328l-13 -15836 -4576 10 12 15769z"/>
   <path class="fil4" d="M404 1498l17907 0 0 21060 -1109 678c-363,226 -749,452 -1115,684 -409,260 -6277,3914 -6635,4089l-9059 -5454 11 -21057zm-790 21436l2442 1545c208,131 400,248 616,372 1800,1037 3727,2273 5549,3341l1236 740 903 -544c113,-69 197,-121 303,-191l2686 -1653c649,-371 1461,-930 2117,-1305l891 -555c106,-71 196,-121 308,-186 113,-64 167,-110 282,-176 111,-64 210,-123 306,-188l1835 -1129 0 -22296 -19474 0 0 22225z"/>
   <path class="fil2" d="M7229 20212c-91,-257 -203,-444 -285,-761 -157,-612 -134,-1205 165,-1757 322,-595 1123,-1176 1924,-1247 834,-74 1139,190 1694,417 -84,-684 -763,-1200 -1481,-1305 -1708,-250 -2871,1114 -2839,2683 16,829 405,1583 822,1970z"/>
   <path class="fil0" d="M12166 19011c-165,198 -302,419 -469,590 -639,656 -1457,951 -2409,645 -1165,-376 -1787,-1347 -1763,-2584 -380,172 -780,1164 -322,2092 1229,2488 4559,1236 4963,-743z"/>
   <path class="fil3" d="M9837 20000c19,33 8,37 44,79 494,38 703,94 1144,-128 897,-452 1470,-1767 1071,-2831 -243,-646 -743,-1179 -1244,-1472 -271,-158 -640,-307 -1011,-366 -202,-32 -420,-47 -631,-37 -214,10 -418,72 -583,83 608,121 999,73 1648,509 408,274 725,666 871,1281 147,616 68,1299 -195,1808 -201,389 -688,957 -1114,1074z"/>
   <path class="fil5" d="M14346 21683c46,-44 188,-264 247,-350l753 -1018 55 221c-3,447 79,368 -531,791 -160,110 -369,283 -524,356zm2155 -23c-185,-230 -354,-467 -536,-718 -84,-114 -182,-250 -267,-369 -65,-91 -195,-242 -231,-350l648 217 386 1220zm-1788 -1256c-178,-86 -368,-246 -532,-360 -102,-71 -186,-135 -265,-193l-234 -206 1662 558 -631 201zm752 -250c58,-126 301,-465 397,-555l1283 -3c-206,112 -1402,506 -1680,558zm-113 -1701l40 1663c-8,-6 -18,-14 -23,-18l-191 -239c-69,-101 -126,-171 -187,-276l361 -1130zm-414 1075l-1549 0c143,133 1094,835 1232,891l-469 1493c219,-119 685,-481 929,-656 115,-82 210,-178 338,-227 101,55 212,141 310,219l933 661 -458 -1443c117,-143 445,-339 615,-471l625 -461 -1531 -6 -479 -1461c-31,35 -23,10 -52,67 -14,27 -19,47 -30,77l-414 1317z"/>
   <path class="fil5" d="M8324 25070l1012 -1377c-1,768 117,576 -480,1005 -150,109 -360,292 -532,372zm1076 -1419c793,238 593,52 833,766 68,201 150,395 190,610 -151,-109 -139,-156 -280,-346l-743 -1030zm-1774 -577l1631 516c-33,30 -12,28 -73,59 -12,6 -69,25 -81,29l-504 140c-94,-129 -738,-511 -973,-744zm1774 485c54,-84 126,-192 191,-278 63,-84 131,-182 200,-268l1292 16 -1683 530zm-185 -139c-346,-429 -298,-440 -213,-691l226 -691c80,-281 53,-153 106,-207l1 1692 -120 -103zm-343 -479l-1543 -1c82,117 451,343 603,461 207,161 418,278 613,451 -16,270 -359,1147 -454,1476 324,-202 1056,-775 1260,-886 222,113 1014,781 1255,885l-472 -1467 1165 -847c6,-5 14,-11 20,-16l-1474 -56 -485 -1447c-105,126 -435,1219 -488,1447z"/>
   <path class="fil4" d="M2248 21665c83,-173 613,-863 765,-1081 72,-102 167,-245 260,-324l-5 664 -1020 741zm2121 -12c-157,-157 -985,-1328 -1013,-1423l633 201 380 1222zm-1845 -1249c-97,-148 -764,-527 -970,-759l1660 540c-128,96 -500,199 -690,219zm814 -245c87,-164 288,-466 409,-562l1053 -4 106 -1 125 9c-476,153 -1200,464 -1693,558zm-63 -1804l-7 1777c-136,-141 -313,-377 -416,-552l423 -1225zm-521 1173l-1495 0 1235 937 -463 1436c230,-87 944,-698 1252,-872l1251 897 -468 -1506c137,-54 505,-334 639,-438 206,-159 410,-297 611,-455l-1539 0c-131,-266 -374,-1234 -477,-1412 -4,-5 -12,-15 -17,-22 -138,218 -370,1323 -529,1435z"/>
   <path class="fil4" d="M7689 3366l318 946 -650 -1 332 -945zm-1198 1983l511 3 202 -590 912 -5c160,37 116,356 282,593l490 5c-17,-171 -838,-2395 -953,-2626l-508 3 -936 2617z"/>
   <path class="fil4" d="M14925 3393c96,124 276,714 328,920l-650 -4 322 -916zm-1179 1952l497 11c307,-714 -124,-599 1186,-599l202 600 510 -4 -950 -2613 -512 -11c-164,355 -339,912 -478,1314 -147,426 -335,883 -455,1302z"/>
   <polygon class="fil4" points="4122,3174 4836,3174 4836,5355 5314,5354 5325,3174 6029,3174 6032,2730 4133,2729 "/>
   <polygon class="fil4" points="11441,4914 10276,4909 10276,2752 9809,2751 9810,5335 11457,5335 "/>
   <polygon class="fil4" points="12422,5354 12900,5354 12910,2732 12430,2729 "/>
   <polygon class="fil4" points="2733,5345 3207,5356 3222,2729 2738,2733 "/>
   <path class="fil5" d="M9938 18658l0 -508 -433 -9 -1 202 221 20 12 170c-485,349 -718,-348 -359,-780l231 -10c47,69 92,130 130,186l182 -28c-101,-588 -850,-524 -912,174 -62,700 482,1041 929,583z"/>
   <path class="fil5" d="M10927 18536c-382,-13 -211,144 -437,87 -290,-73 -216,-784 -48,-868 282,-49 137,87 486,87 -28,-446 -804,-527 -836,293 -31,786 662,976 835,401z"/>
   <polygon class="fil5" points="7796,18701 7800,18838 7996,18832 8002,18284 8418,18277 8418,18081 8002,18061 8004,17754 8482,17754 8484,17534 7794,17534 "/>
   <path class="fil6" d="M3338 20159c493,-94 1217,-405 1693,-558l-125 -9 -106 1 -1053 4c-121,96 -322,398 -409,562z"/>
   <path class="fil6" d="M15465 20154c278,-52 1474,-446 1680,-558l-1283 3c-96,90 -339,429 -397,555z"/>
   <path class="fil7" d="M9335 23523l-1 -1692c-53,54 -26,-74 -106,207l-226 691c-85,251 -133,262 213,691l120 103z"/>
   <path class="fil7" d="M2524 20404c190,-20 562,-123 690,-219l-1660 -540c206,232 873,611 970,759z"/>
   <path class="fil7" d="M4369 21653l-380 -1222 -633 -201c28,95 856,1266 1013,1423z"/>
   <path class="fil6" d="M2852 19580c103,175 280,411 416,552l7 -1777 -423 1225z"/>
   <path class="fil7" d="M16501 21660l-386 -1220 -648 -217c36,108 166,259 231,350 85,119 183,255 267,369 182,251 351,488 536,718z"/>
   <path class="fil7" d="M10143 24681c141,190 129,237 280,346 -40,-215 -122,-409 -190,-610 -240,-714 -40,-528 -833,-766l743 1030z"/>
   <path class="fil7" d="M14346 21683c155,-73 364,-246 524,-356 610,-423 528,-344 531,-791l-55 -221 -753 1018c-59,86 -201,306 -247,350z"/>
   <path class="fil7" d="M14713 20404l631 -201 -1662 -558 234 206c79,58 163,122 265,193 164,114 354,274 532,360z"/>
   <path class="fil7" d="M7626 23074c235,233 879,615 973,744l504 -140c12,-4 69,-23 81,-29 61,-31 40,-29 73,-59l-1631 -516z"/>
   <path class="fil7" d="M2248 21665l1020 -741 5 -664c-93,79 -188,222 -260,324 -152,218 -682,908 -765,1081z"/>
   <path class="fil7" d="M9400 23559l1683 -530 -1292 -16c-69,86 -137,184 -200,268 -65,86 -137,194 -191,278z"/>
   <path class="fil7" d="M8324 25070c172,-80 382,-263 532,-372 597,-429 479,-237 480,-1005l-1012 1377z"/>
   <path class="fil7" d="M14991 19583c61,105 118,175 187,276l191 239c5,4 15,12 23,18l-40 -1663 -361 1130z"/>
   <path class="fil0" d="M14603 4309l650 4c-52,-206 -232,-796 -328,-920l-322 916z"/>
   <polygon class="fil0" points="7357,4311 8007,4312 7689,3366 "/>
   <polygon class="fil5" points="8643,18701 8646,18838 8843,18832 8846,17546 8643,17531 "/>
   <path class="fil8" d="M11441 4914l16 421 -1647 0 -1 -2584c-74,0 -34,2528 -24,2604l1701 12c9,-99 10,-167 11,-249 1,-201 3,-158 -56,-204z"/>
   <path class="fil9" d="M9881 20079c-36,-42 -25,-46 -44,-79 -62,-4 -52,-18 -32,42l76 37z"/>
  </g>
 </g>
</svg>
